<svg data-v-423bf9ae="" xmlns="http://www.w3.org/2000/svg" viewBox="0 0 499 90" class="iconLeft"><!----><!----><!----><g data-v-423bf9ae="" id="f87d4ebd-3070-4748-83e4-a9277119c4f1" fill="#E8E8EE" transform="matrix(6.423982764430195,0,0,6.423982764430195,92.93403833011237,-7.09850155406027)"><path d="M0.27 12.71L1.48 12.24L1.48 9.65Q3.33 9.77 4.49 8.73Q5.65 7.68 5.56 6.34Q5.46 5.00 4.46 4.18Q3.45 3.36 1.24 3.69L1.24 3.69L0.28 4.17L0.27 12.71ZM1.73 7.89L1.46 8.26L1.43 4.84Q2.99 4.69 3.73 5.20Q4.46 5.71 4.66 6.85Q4.85 8.00 4.02 8.53Q3.18 9.06 1.73 7.89L1.73 7.89ZM7.42 6.51L6.15 7.03L6.15 12.73L7.48 12.12L7.48 8.05Q8.12 7.22 8.71 7.37Q9.30 7.53 9.37 8.26L9.37 8.26L10.60 7.46Q10.47 6.62 9.45 6.50Q8.44 6.38 7.42 7.73L7.42 7.73L7.42 6.51ZM13.97 6.43Q13.06 6.36 12.04 6.88Q11.03 7.40 11.15 8.65L11.15 8.65L12.71 7.95Q12.60 7.10 13.34 6.96Q14.09 6.82 14.51 7.21Q14.92 7.61 14.86 8.80L14.86 8.80Q14.40 8.50 13.78 8.42Q13.17 8.33 12.15 8.85Q11.14 9.37 10.89 10.38Q10.64 11.38 11.42 12.06Q12.20 12.73 12.92 12.70Q13.64 12.67 14.01 12.39Q14.37 12.10 14.88 11.57L14.88 11.57Q14.88 12.44 15.08 12.76L15.08 12.76L16.43 12.04Q16.09 11.63 16.16 11.02L16.16 11.02L16.16 8.16Q16.19 7.49 15.54 6.99Q14.89 6.50 13.97 6.43ZM14.91 9.32L14.90 9.68L14.90 11.18Q13.73 12.11 12.79 11.55Q11.84 10.99 11.71 10.16Q11.59 9.34 12.53 9.31Q13.48 9.28 14.28 10.00L14.28 10.00L14.91 9.32ZM20.17 6.43Q19.26 6.36 18.24 6.88Q17.23 7.40 17.35 8.65L17.35 8.65L18.92 7.95Q18.80 7.10 19.54 6.96Q20.29 6.82 20.71 7.21Q21.12 7.61 21.06 8.80L21.06 8.80Q20.60 8.50 19.98 8.42Q19.37 8.33 18.35 8.85Q17.34 9.37 17.09 10.38Q16.84 11.38 17.62 12.06Q18.40 12.73 19.12 12.70Q19.84 12.67 20.21 12.39Q20.57 12.10 21.08 11.57L21.08 11.57Q21.08 12.44 21.28 12.76L21.28 12.76L22.63 12.04Q22.29 11.63 22.36 11.02L22.36 11.02L22.36 8.16Q22.39 7.49 21.74 6.99Q21.09 6.50 20.17 6.43ZM21.11 9.32L21.10 9.68L21.10 11.18Q19.93 12.11 18.99 11.55Q18.04 10.99 17.91 10.16Q17.79 9.34 18.73 9.31Q19.68 9.28 20.48 10.00L20.48 10.00L21.11 9.32ZM24.76 3.44L23.49 3.95L23.49 12.73L24.81 12.17L24.81 8.05Q25.46 7.22 26.45 7.44Q27.44 7.66 27.39 8.69L27.39 8.69L27.39 12.77L28.69 12.24L28.69 8.32Q28.63 6.56 27.20 6.47Q25.77 6.38 24.75 7.73L24.75 7.73L24.76 3.44ZM31.47 3.55L30.20 4.14L30.20 5.58L31.47 5.06L31.47 3.55ZM31.47 6.54L30.16 7.02L30.16 12.67L31.47 12.21L31.47 6.54ZM35.25 6.48Q34.55 6.57 34.18 6.79Q33.80 7.01 33.49 7.38Q33.17 7.76 33.15 8.38Q33.14 9.00 33.59 9.39Q34.04 9.77 35.31 10.21Q36.59 10.64 36.73 11.06Q36.86 11.48 36.54 11.76Q36.22 12.04 35.64 11.97Q35.06 11.90 34.63 11.61Q34.20 11.32 33.92 10.93Q33.65 10.55 33.58 10.27L33.58 10.27L32.52 11.06Q32.75 11.58 33.10 11.93Q33.45 12.28 33.98 12.50Q34.51 12.71 35.25 12.75Q36.00 12.78 36.58 12.37Q37.15 11.96 37.46 11.48Q37.77 11.01 37.75 10.52Q37.73 10.04 37.31 9.63Q36.90 9.21 35.54 8.75Q34.17 8.29 34.11 7.87Q34.06 7.44 34.60 7.29Q35.14 7.14 35.88 7.53Q36.61 7.93 36.57 8.16L36.57 8.16L37.43 7.25Q37.16 6.82 36.56 6.60Q35.95 6.39 35.25 6.48ZM46.32 4.13L47.65 3.57L47.65 12.28L46.34 12.78L46.34 11.95Q45.07 13.13 43.76 12.57Q42.44 12.02 42.03 10.68Q41.62 9.34 42.49 8.09Q43.35 6.84 44.41 6.55Q45.47 6.25 46.33 6.77L46.33 6.77L46.32 4.13ZM44.67 7.36Q43.98 7.26 43.35 7.98Q42.73 8.70 43.10 9.80Q43.47 10.90 44.38 11.40Q45.29 11.89 46.33 11.48L46.33 11.48L46.33 7.88L45.88 8.18Q45.37 7.45 44.67 7.36ZM50.38 3.55L49.12 4.14L49.12 5.58L50.38 5.06L50.38 3.55ZM50.39 6.54L49.08 7.02L49.08 12.67L50.39 12.21L50.39 6.54ZM53.00 6.38L51.69 6.89L51.69 12.73L53.06 12.15L53.06 8.05Q53.72 7.22 54.71 7.37Q55.69 7.53 55.66 8.48L55.66 8.48L55.65 12.77L56.99 12.18L56.99 8.25Q57.09 7.35 56.43 6.87Q55.77 6.40 54.80 6.56Q53.83 6.72 52.99 7.73L52.99 7.73L53.00 6.38ZM61.16 6.51Q60.08 6.35 59.14 7.19Q58.20 8.03 57.94 9.15Q57.67 10.27 58.02 11.09Q58.37 11.91 58.95 12.28Q59.53 12.66 60.33 12.71Q61.12 12.76 61.89 12.08Q62.66 11.41 63.12 10.54L63.12 10.54L63.02 10.47Q61.97 11.57 60.89 11.52Q59.81 11.47 59.47 10.85L59.47 10.85L61.41 9.78Q62.86 8.81 62.56 7.75Q62.25 6.68 61.16 6.51ZM58.95 8.16Q59.19 7.66 59.80 7.40Q60.41 7.14 60.96 7.68Q61.50 8.21 61.34 8.90Q61.17 9.60 59.26 10.57L59.26 10.57Q58.95 10.04 58.83 9.35Q58.71 8.67 58.95 8.16Z"></path></g><!----><g data-v-423bf9ae="" id="c95afb0d-85ea-4bb3-8b7f-38efd9ee785a" transform="matrix(1.9005473840302032,0,0,1.9005473840302032,-10.157930455429153,-2.1907248464075053)" stroke="none" fill="#E8E8EE"><g clip-rule="evenodd"><path d="M44.104 11.163c.779-.705.704-1.413-.15-2.119-4.348.819-31.488 11.599-32.084 13.682 10.708-3.868 21.489-7.696 32.234-11.563zM36.52 2.613c-.484-3.271-4.054.521-6.617 2.082-2.642 2.043-4.833 3.531-7.547 5.578C19.79 12.241 9.044 19.751 8.45 22.056L36.52 2.613zM18.671 26.926c2.752-1.076 2.381-4.869 7.548-2.936.483.781 0 1.45-.632 2.229 3.235-1.261 5.245-2.86 7.66 1.303 1.896-.631 5.726.93 6.023-.074-1.488-.816-3.05-1.486-5.354-1.486-.744-.707-1.523-1.376-2.305-2.083-1.19-.372-2.416-.335-3.641.111-1.268-.818-1.936-1.747-4.092-1.747-2.12 0-2.791.929-4.017 1.747-3.271 0-3.568.036-5.986 2.229-1.561.447-3.159.855-4.721 1.303.073.223.111.447.186.631 1.747-.258 3.495-.52 5.242-.779.632-2.379 5.466-3.792 4.089-.448zM5.363 28.861c-.224 8.625 5.279 16.691 11.079 19.816h16.917c.036-.113 5.986-5.133 7.434-7.734 1.637-3.014 3.05-7.732 3.05-12.082H5.363z"></path></g></g><!----></svg>